<svg width="1440" height="1669" viewBox="0 0 1440 1669" fill="none" xmlns="http://www.w3.org/2000/svg">
<g clip-path="url(#clip0_46181_50607)">
<rect width="1440" height="1669" fill="#0E0F13"/>
<g filter="url(#filter0_f_46181_50607)">
<ellipse cx="-53.8831" cy="238.481" rx="42.2458" ry="259.78" transform="rotate(-44.5907 -53.8831 238.481)" fill="#7A5FFF" fill-opacity="0.36"/>
</g>
<g filter="url(#filter1_f_46181_50607)">
<path d="M-141.668 -42.3337C-167.7 -72.9555 -160.89 -119.482 -127.174 -141.359C-99.5001 -159.316 -62.9327 -154.332 -41.5417 -129.217C42.2566 -30.8308 240.727 210.272 282.676 334.345C336.186 492.609 199.446 358.936 199.446 358.936L-141.668 -42.3337Z" fill="#7A5FFF" fill-opacity="0.53"/>
</g>
<g filter="url(#filter2_f_46181_50607)">
<path d="M-142.418 -270.79C-163.721 -294.106 -159.53 -330.865 -133.524 -348.787C-112.353 -363.378 -83.7519 -360.343 -66.3538 -341.411C14.9403 -252.947 235.198 -7.73529 291.846 112.383C361.707 260.521 223.427 129.617 223.427 129.617L-142.418 -270.79Z" fill="#7A5FFF"/>
</g>
<g filter="url(#filter3_f_46181_50607)">
<ellipse cx="41.3817" cy="254.467" rx="41.3817" ry="254.467" transform="matrix(-0.71214 -0.702038 -0.702038 0.71214 1706.34 73.5166)" fill="#7A5FFF" fill-opacity="0.36"/>
</g>
<g filter="url(#filter4_f_46181_50607)">
<path d="M1584.22 -49.3902C1609.71 -79.3856 1603.04 -124.96 1570.02 -146.39C1542.91 -163.98 1507.09 -159.098 1486.14 -134.496C1404.05 -38.1225 1209.64 198.049 1168.55 319.584C1116.14 474.611 1250.08 343.672 1250.08 343.672L1584.22 -49.3902Z" fill="#7A5FFF" fill-opacity="0.53"/>
</g>
<g filter="url(#filter5_f_46181_50607)">
<path d="M1584.95 -273.173C1605.82 -296.012 1601.71 -332.02 1576.24 -349.575C1555.5 -363.867 1527.48 -360.895 1510.44 -342.35C1430.81 -255.696 1215.06 -15.4994 1159.57 102.162C1091.14 247.27 1226.59 119.043 1226.59 119.043L1584.95 -273.173Z" fill="#7A5FFF"/>
</g>
<g opacity="0.18" filter="url(#filter6_f_46181_50607)">
<ellipse cx="1360" cy="272.697" rx="410" ry="211" fill="#A496FF"/>
</g>
<g opacity="0.18" filter="url(#filter7_f_46181_50607)">
<ellipse cx="410" cy="211" rx="410" ry="211" transform="matrix(1 0 0 -1 -455 -3.30273)" fill="#A496FF"/>
</g>
<g opacity="0.1" filter="url(#filter8_f_46181_50607)">
<ellipse cx="295" cy="372.697" rx="505" ry="211" fill="#A496FF"/>
</g>
<g opacity="0.1" filter="url(#filter9_f_46181_50607)">
<ellipse cx="1360" cy="-382.303" rx="505" ry="211" fill="#A496FF"/>
</g>
<rect x="0.25" y="-67.0527" width="79.5" height="79.5" stroke="white" stroke-opacity="0.02" stroke-width="0.5"/>
<rect x="0.25" y="12.9473" width="79.5" height="79.5" stroke="white" stroke-opacity="0.02" stroke-width="0.5"/>
<rect x="0.25" y="92.9473" width="79.5" height="79.5" stroke="white" stroke-opacity="0.02" stroke-width="0.5"/>
<rect x="0.25" y="172.947" width="79.5" height="79.5" stroke="white" stroke-opacity="0.02" stroke-width="0.5"/>
<rect x="0.25" y="252.947" width="79.5" height="79.5" stroke="white" stroke-opacity="0.02" stroke-width="0.5"/>
<rect x="0.25" y="332.947" width="79.5" height="79.5" stroke="white" stroke-opacity="0.02" stroke-width="0.5"/>
<rect x="80.25" y="-67.0527" width="79.5" height="79.5" stroke="white" stroke-opacity="0.02" stroke-width="0.5"/>
<rect x="80.25" y="12.9473" width="79.5" height="79.5" stroke="white" stroke-opacity="0.02" stroke-width="0.5"/>
<rect x="80.25" y="92.9473" width="79.5" height="79.5" stroke="white" stroke-opacity="0.02" stroke-width="0.5"/>
<rect x="80.25" y="172.947" width="79.5" height="79.5" stroke="white" stroke-opacity="0.02" stroke-width="0.5"/>
<rect x="80.25" y="252.947" width="79.5" height="79.5" stroke="white" stroke-opacity="0.02" stroke-width="0.5"/>
<rect x="80.25" y="332.947" width="79.5" height="79.5" stroke="white" stroke-opacity="0.02" stroke-width="0.5"/>
<rect x="160.25" y="-67.0527" width="79.5" height="79.5" stroke="white" stroke-opacity="0.02" stroke-width="0.5"/>
<rect x="160.25" y="12.9473" width="79.5" height="79.5" stroke="white" stroke-opacity="0.02" stroke-width="0.5"/>
<rect x="160.25" y="92.9473" width="79.5" height="79.5" stroke="white" stroke-opacity="0.02" stroke-width="0.5"/>
<rect x="160.25" y="172.947" width="79.5" height="79.5" stroke="white" stroke-opacity="0.02" stroke-width="0.5"/>
<rect x="160.25" y="252.947" width="79.5" height="79.5" stroke="white" stroke-opacity="0.02" stroke-width="0.5"/>
<rect x="160.25" y="332.947" width="79.5" height="79.5" stroke="white" stroke-opacity="0.02" stroke-width="0.5"/>
<rect x="240.25" y="-67.0527" width="79.5" height="79.5" stroke="white" stroke-opacity="0.02" stroke-width="0.5"/>
<rect x="240.25" y="12.9473" width="79.5" height="79.5" stroke="white" stroke-opacity="0.02" stroke-width="0.5"/>
<rect x="240.25" y="92.9473" width="79.5" height="79.5" stroke="white" stroke-opacity="0.02" stroke-width="0.5"/>
<rect x="240.25" y="172.947" width="79.5" height="79.5" stroke="white" stroke-opacity="0.02" stroke-width="0.5"/>
<rect x="240.25" y="252.947" width="79.5" height="79.5" stroke="white" stroke-opacity="0.02" stroke-width="0.5"/>
<rect x="240.25" y="332.947" width="79.5" height="79.5" stroke="white" stroke-opacity="0.02" stroke-width="0.5"/>
<rect x="320.25" y="-67.0527" width="79.5" height="79.5" stroke="white" stroke-opacity="0.02" stroke-width="0.5"/>
<rect x="320.25" y="12.9473" width="79.5" height="79.5" stroke="white" stroke-opacity="0.02" stroke-width="0.5"/>
<rect x="320.25" y="92.9473" width="79.5" height="79.5" stroke="white" stroke-opacity="0.02" stroke-width="0.5"/>
<rect x="320.25" y="172.947" width="79.5" height="79.5" stroke="white" stroke-opacity="0.02" stroke-width="0.5"/>
<rect x="320.25" y="252.947" width="79.5" height="79.5" stroke="white" stroke-opacity="0.02" stroke-width="0.5"/>
<rect x="320.25" y="332.947" width="79.5" height="79.5" stroke="white" stroke-opacity="0.02" stroke-width="0.5"/>
<rect x="400.25" y="-67.0527" width="79.5" height="79.5" stroke="white" stroke-opacity="0.02" stroke-width="0.5"/>
<rect x="400.25" y="12.9473" width="79.5" height="79.5" stroke="white" stroke-opacity="0.02" stroke-width="0.5"/>
<rect x="400.25" y="92.9473" width="79.5" height="79.5" stroke="white" stroke-opacity="0.02" stroke-width="0.5"/>
<rect x="400.25" y="172.947" width="79.5" height="79.5" stroke="white" stroke-opacity="0.02" stroke-width="0.5"/>
<rect x="400.25" y="252.947" width="79.5" height="79.5" stroke="white" stroke-opacity="0.02" stroke-width="0.5"/>
<rect x="400.25" y="332.947" width="79.5" height="79.5" stroke="white" stroke-opacity="0.02" stroke-width="0.5"/>
<rect x="480.25" y="-67.0527" width="79.5" height="79.5" stroke="white" stroke-opacity="0.02" stroke-width="0.5"/>
<rect x="480.25" y="12.9473" width="79.5" height="79.5" stroke="white" stroke-opacity="0.02" stroke-width="0.5"/>
<rect x="480.25" y="92.9473" width="79.5" height="79.5" stroke="white" stroke-opacity="0.02" stroke-width="0.5"/>
<rect x="480.25" y="172.947" width="79.5" height="79.5" stroke="white" stroke-opacity="0.02" stroke-width="0.5"/>
<rect x="480.25" y="252.947" width="79.5" height="79.5" stroke="white" stroke-opacity="0.02" stroke-width="0.5"/>
<rect x="480.25" y="332.947" width="79.5" height="79.5" stroke="white" stroke-opacity="0.02" stroke-width="0.5"/>
<rect x="560.25" y="-67.0527" width="79.5" height="79.5" stroke="white" stroke-opacity="0.02" stroke-width="0.5"/>
<rect x="560.25" y="12.9473" width="79.5" height="79.5" stroke="white" stroke-opacity="0.02" stroke-width="0.5"/>
<rect x="560.25" y="92.9473" width="79.5" height="79.5" stroke="white" stroke-opacity="0.02" stroke-width="0.5"/>
<rect x="560.25" y="172.947" width="79.5" height="79.5" stroke="white" stroke-opacity="0.02" stroke-width="0.5"/>
<rect x="560.25" y="252.947" width="79.5" height="79.5" stroke="white" stroke-opacity="0.02" stroke-width="0.5"/>
<rect x="560.25" y="332.947" width="79.5" height="79.5" stroke="white" stroke-opacity="0.02" stroke-width="0.5"/>
<rect x="640.25" y="-67.0527" width="79.5" height="79.5" stroke="white" stroke-opacity="0.02" stroke-width="0.5"/>
<rect x="640.25" y="12.9473" width="79.5" height="79.5" stroke="white" stroke-opacity="0.02" stroke-width="0.5"/>
<rect x="640.25" y="92.9473" width="79.5" height="79.5" stroke="white" stroke-opacity="0.02" stroke-width="0.5"/>
<rect x="640.25" y="172.947" width="79.5" height="79.5" stroke="white" stroke-opacity="0.02" stroke-width="0.5"/>
<rect x="640.25" y="252.947" width="79.5" height="79.5" stroke="white" stroke-opacity="0.02" stroke-width="0.5"/>
<rect x="640.25" y="332.947" width="79.5" height="79.5" stroke="white" stroke-opacity="0.02" stroke-width="0.5"/>
<rect x="720.25" y="-67.0527" width="79.5" height="79.5" stroke="white" stroke-opacity="0.02" stroke-width="0.5"/>
<rect x="720.25" y="12.9473" width="79.5" height="79.5" stroke="white" stroke-opacity="0.02" stroke-width="0.5"/>
<rect x="720.25" y="92.9473" width="79.5" height="79.5" stroke="white" stroke-opacity="0.02" stroke-width="0.5"/>
<rect x="720.25" y="172.947" width="79.5" height="79.5" stroke="white" stroke-opacity="0.02" stroke-width="0.5"/>
<rect x="720.25" y="252.947" width="79.5" height="79.5" stroke="white" stroke-opacity="0.02" stroke-width="0.5"/>
<rect x="720.25" y="332.947" width="79.5" height="79.5" stroke="white" stroke-opacity="0.02" stroke-width="0.5"/>
<rect x="800.25" y="-67.0527" width="79.5" height="79.5" stroke="white" stroke-opacity="0.02" stroke-width="0.5"/>
<rect x="800.25" y="12.9473" width="79.5" height="79.5" stroke="white" stroke-opacity="0.02" stroke-width="0.5"/>
<rect x="800.25" y="92.9473" width="79.5" height="79.5" stroke="white" stroke-opacity="0.02" stroke-width="0.5"/>
<rect x="800.25" y="172.947" width="79.5" height="79.5" stroke="white" stroke-opacity="0.02" stroke-width="0.5"/>
<rect x="800.25" y="252.947" width="79.5" height="79.5" stroke="white" stroke-opacity="0.02" stroke-width="0.5"/>
<rect x="800.25" y="332.947" width="79.5" height="79.5" stroke="white" stroke-opacity="0.02" stroke-width="0.5"/>
<rect x="880.25" y="-67.0527" width="79.5" height="79.5" stroke="white" stroke-opacity="0.02" stroke-width="0.5"/>
<rect x="880.25" y="12.9473" width="79.5" height="79.5" stroke="white" stroke-opacity="0.02" stroke-width="0.5"/>
<rect x="880.25" y="92.9473" width="79.5" height="79.5" stroke="white" stroke-opacity="0.02" stroke-width="0.5"/>
<rect x="880.25" y="172.947" width="79.5" height="79.5" stroke="white" stroke-opacity="0.02" stroke-width="0.5"/>
<rect x="880.25" y="252.947" width="79.5" height="79.5" stroke="white" stroke-opacity="0.02" stroke-width="0.5"/>
<rect x="880.25" y="332.947" width="79.5" height="79.5" stroke="white" stroke-opacity="0.02" stroke-width="0.5"/>
<rect x="960.25" y="-67.0527" width="79.5" height="79.5" stroke="white" stroke-opacity="0.02" stroke-width="0.5"/>
<rect x="960.25" y="12.9473" width="79.5" height="79.5" stroke="white" stroke-opacity="0.02" stroke-width="0.5"/>
<rect x="960.25" y="92.9473" width="79.5" height="79.5" stroke="white" stroke-opacity="0.02" stroke-width="0.5"/>
<rect x="960.25" y="172.947" width="79.5" height="79.5" stroke="white" stroke-opacity="0.02" stroke-width="0.5"/>
<rect x="960.25" y="252.947" width="79.5" height="79.5" stroke="white" stroke-opacity="0.02" stroke-width="0.5"/>
<rect x="960.25" y="332.947" width="79.5" height="79.5" stroke="white" stroke-opacity="0.02" stroke-width="0.5"/>
<rect x="1040.25" y="-67.0527" width="79.5" height="79.5" stroke="white" stroke-opacity="0.02" stroke-width="0.5"/>
<rect x="1040.25" y="12.9473" width="79.5" height="79.5" stroke="white" stroke-opacity="0.02" stroke-width="0.5"/>
<rect x="1040.25" y="92.9473" width="79.5" height="79.5" stroke="white" stroke-opacity="0.02" stroke-width="0.5"/>
<rect x="1040.25" y="172.947" width="79.5" height="79.5" stroke="white" stroke-opacity="0.02" stroke-width="0.5"/>
<rect x="1040.25" y="252.947" width="79.5" height="79.5" stroke="white" stroke-opacity="0.02" stroke-width="0.5"/>
<rect x="1040.25" y="332.947" width="79.5" height="79.5" stroke="white" stroke-opacity="0.02" stroke-width="0.5"/>
<rect x="1120.25" y="-67.0527" width="79.5" height="79.5" stroke="white" stroke-opacity="0.02" stroke-width="0.5"/>
<rect x="1120.25" y="12.9473" width="79.5" height="79.5" stroke="white" stroke-opacity="0.02" stroke-width="0.5"/>
<rect x="1120.25" y="92.9473" width="79.5" height="79.5" stroke="white" stroke-opacity="0.02" stroke-width="0.5"/>
<rect x="1120.25" y="172.947" width="79.5" height="79.5" stroke="white" stroke-opacity="0.02" stroke-width="0.5"/>
<rect x="1120.25" y="252.947" width="79.5" height="79.5" stroke="white" stroke-opacity="0.02" stroke-width="0.5"/>
<rect x="1120.25" y="332.947" width="79.5" height="79.5" stroke="white" stroke-opacity="0.02" stroke-width="0.5"/>
<rect x="1200.25" y="-67.0527" width="79.5" height="79.5" stroke="white" stroke-opacity="0.02" stroke-width="0.5"/>
<rect x="1200.25" y="12.9473" width="79.5" height="79.5" stroke="white" stroke-opacity="0.02" stroke-width="0.5"/>
<rect x="1200.25" y="92.9473" width="79.5" height="79.5" stroke="white" stroke-opacity="0.02" stroke-width="0.5"/>
<rect x="1200.25" y="172.947" width="79.5" height="79.5" stroke="white" stroke-opacity="0.02" stroke-width="0.5"/>
<rect x="1200.25" y="252.947" width="79.5" height="79.5" stroke="white" stroke-opacity="0.02" stroke-width="0.5"/>
<rect x="1200.25" y="332.947" width="79.5" height="79.5" stroke="white" stroke-opacity="0.02" stroke-width="0.5"/>
<rect x="1280.25" y="-67.0527" width="79.5" height="79.5" stroke="white" stroke-opacity="0.02" stroke-width="0.5"/>
<rect x="1280.25" y="12.9473" width="79.5" height="79.5" stroke="white" stroke-opacity="0.02" stroke-width="0.5"/>
<rect x="1280.25" y="92.9473" width="79.5" height="79.5" stroke="white" stroke-opacity="0.02" stroke-width="0.5"/>
<rect x="1280.25" y="172.947" width="79.5" height="79.5" stroke="white" stroke-opacity="0.02" stroke-width="0.5"/>
<rect x="1280.25" y="252.947" width="79.5" height="79.5" stroke="white" stroke-opacity="0.02" stroke-width="0.5"/>
<rect x="1280.25" y="332.947" width="79.5" height="79.5" stroke="white" stroke-opacity="0.02" stroke-width="0.5"/>
<rect x="1360.25" y="-67.0527" width="79.5" height="79.5" stroke="white" stroke-opacity="0.02" stroke-width="0.5"/>
<rect x="1360.25" y="12.9473" width="79.5" height="79.5" stroke="white" stroke-opacity="0.02" stroke-width="0.5"/>
<rect x="1360.25" y="92.9473" width="79.5" height="79.5" stroke="white" stroke-opacity="0.02" stroke-width="0.5"/>
<rect x="1360.25" y="172.947" width="79.5" height="79.5" stroke="white" stroke-opacity="0.02" stroke-width="0.5"/>
<rect x="1360.25" y="252.947" width="79.5" height="79.5" stroke="white" stroke-opacity="0.02" stroke-width="0.5"/>
<rect x="1360.25" y="332.947" width="79.5" height="79.5" stroke="white" stroke-opacity="0.02" stroke-width="0.5"/>
<g filter="url(#filter10_di_46181_50607)">
<ellipse cx="720" cy="1439.76" rx="1084.5" ry="481.5" fill="#0E0F13"/>
<path d="M720 958.76C1019.42 958.76 1290.48 1012.65 1486.65 1099.75C1584.74 1143.3 1664.09 1195.14 1718.91 1252.68C1773.73 1310.22 1804 1373.44 1804 1439.76C1804 1506.08 1773.73 1569.29 1718.91 1626.84C1664.09 1684.38 1584.74 1736.22 1486.65 1779.77C1290.48 1866.87 1019.42 1920.76 720 1920.76C420.577 1920.76 149.524 1866.87 -46.6543 1779.77C-144.744 1736.22 -224.093 1684.38 -278.912 1626.84C-333.729 1569.29 -364 1506.08 -364 1439.76C-364 1373.44 -333.729 1310.22 -278.912 1252.68C-224.093 1195.14 -144.744 1143.3 -46.6543 1099.75C149.524 1012.65 420.577 958.76 720 958.76Z" stroke="white" stroke-opacity="0.11"/>
</g>
<g opacity="0.31">
<path d="M400 10.6973L400 -56.3027" stroke="url(#paint0_linear_46181_50607)" stroke-linecap="round"/>
<path d="M400 14.6973L400 81.6973" stroke="url(#paint1_linear_46181_50607)" stroke-linecap="round"/>
<path d="M398 13.6973L331 13.6973" stroke="url(#paint2_linear_46181_50607)" stroke-linecap="round"/>
<path d="M403 13.6973L470 13.6973" stroke="url(#paint3_linear_46181_50607)" stroke-linecap="round"/>
</g>
<circle cx="400" cy="13.6973" r="3" fill="#B9B9B9"/>
<g opacity="0.31">
<path d="M1279 90.6973L1279 23.6973" stroke="url(#paint4_linear_46181_50607)" stroke-linecap="round"/>
<path d="M1279 94.6973L1279 161.697" stroke="url(#paint5_linear_46181_50607)" stroke-linecap="round"/>
<path d="M1277 93.6973L1210 93.6973" stroke="url(#paint6_linear_46181_50607)" stroke-linecap="round"/>
<path d="M1282 93.6973L1349 93.6973" stroke="url(#paint7_linear_46181_50607)" stroke-linecap="round"/>
</g>
<circle cx="1279" cy="93.6973" r="3" fill="#B9B9B9"/>
<g opacity="0.31">
<path d="M159 249.697L159 182.697" stroke="url(#paint8_linear_46181_50607)" stroke-linecap="round"/>
<path d="M159 253.697L159 320.697" stroke="url(#paint9_linear_46181_50607)" stroke-linecap="round"/>
<path d="M157 252.697L90 252.697" stroke="url(#paint10_linear_46181_50607)" stroke-linecap="round"/>
<path d="M162 252.697L229 252.697" stroke="url(#paint11_linear_46181_50607)" stroke-linecap="round"/>
</g>
<circle cx="159" cy="252.697" r="3" fill="#B9B9B9"/>
</g>
<defs>
<filter id="filter0_f_46181_50607" x="-317.066" y="-27.2206" width="526.363" height="531.404" filterUnits="userSpaceOnUse" color-interpolation-filters="sRGB">
<feFlood flood-opacity="0" result="BackgroundImageFix"/>
<feBlend mode="normal" in="SourceGraphic" in2="BackgroundImageFix" result="shape"/>
<feGaussianBlur stdDeviation="39.1562" result="effect1_foregroundBlur_46181_50607"/>
</filter>
<filter id="filter1_f_46181_50607" x="-302.81" y="-297.35" width="743.179" height="854.305" filterUnits="userSpaceOnUse" color-interpolation-filters="sRGB">
<feFlood flood-opacity="0" result="BackgroundImageFix"/>
<feBlend mode="normal" in="SourceGraphic" in2="BackgroundImageFix" result="shape"/>
<feGaussianBlur stdDeviation="72.6376" result="effect1_foregroundBlur_46181_50607"/>
</filter>
<filter id="filter2_f_46181_50607" x="-301.326" y="-503.248" width="758.16" height="831.531" filterUnits="userSpaceOnUse" color-interpolation-filters="sRGB">
<feFlood flood-opacity="0" result="BackgroundImageFix"/>
<feBlend mode="normal" in="SourceGraphic" in2="BackgroundImageFix" result="shape"/>
<feGaussianBlur stdDeviation="72.6376" result="effect1_foregroundBlur_46181_50607"/>
</filter>
<filter id="filter3_f_46181_50607" x="1240.43" y="-34.5866" width="515.595" height="520.535" filterUnits="userSpaceOnUse" color-interpolation-filters="sRGB">
<feFlood flood-opacity="0" result="BackgroundImageFix"/>
<feBlend mode="normal" in="SourceGraphic" in2="BackgroundImageFix" result="shape"/>
<feGaussianBlur stdDeviation="38.3553" result="effect1_foregroundBlur_46181_50607"/>
</filter>
<filter id="filter4_f_46181_50607" x="1014.08" y="-299.191" width="727.979" height="836.831" filterUnits="userSpaceOnUse" color-interpolation-filters="sRGB">
<feFlood flood-opacity="0" result="BackgroundImageFix"/>
<feBlend mode="normal" in="SourceGraphic" in2="BackgroundImageFix" result="shape"/>
<feGaussianBlur stdDeviation="71.1519" result="effect1_foregroundBlur_46181_50607"/>
</filter>
<filter id="filter5_f_46181_50607" x="997.954" y="-500.876" width="742.652" height="814.522" filterUnits="userSpaceOnUse" color-interpolation-filters="sRGB">
<feFlood flood-opacity="0" result="BackgroundImageFix"/>
<feBlend mode="normal" in="SourceGraphic" in2="BackgroundImageFix" result="shape"/>
<feGaussianBlur stdDeviation="71.1519" result="effect1_foregroundBlur_46181_50607"/>
</filter>
<filter id="filter6_f_46181_50607" x="527.2" y="-361.103" width="1665.6" height="1267.6" filterUnits="userSpaceOnUse" color-interpolation-filters="sRGB">
<feFlood flood-opacity="0" result="BackgroundImageFix"/>
<feBlend mode="normal" in="SourceGraphic" in2="BackgroundImageFix" result="shape"/>
<feGaussianBlur stdDeviation="211.4" result="effect1_foregroundBlur_46181_50607"/>
</filter>
<filter id="filter7_f_46181_50607" x="-877.8" y="-848.103" width="1665.6" height="1267.6" filterUnits="userSpaceOnUse" color-interpolation-filters="sRGB">
<feFlood flood-opacity="0" result="BackgroundImageFix"/>
<feBlend mode="normal" in="SourceGraphic" in2="BackgroundImageFix" result="shape"/>
<feGaussianBlur stdDeviation="211.4" result="effect1_foregroundBlur_46181_50607"/>
</filter>
<filter id="filter8_f_46181_50607" x="-632.8" y="-261.103" width="1855.6" height="1267.6" filterUnits="userSpaceOnUse" color-interpolation-filters="sRGB">
<feFlood flood-opacity="0" result="BackgroundImageFix"/>
<feBlend mode="normal" in="SourceGraphic" in2="BackgroundImageFix" result="shape"/>
<feGaussianBlur stdDeviation="211.4" result="effect1_foregroundBlur_46181_50607"/>
</filter>
<filter id="filter9_f_46181_50607" x="432.2" y="-1016.1" width="1855.6" height="1267.6" filterUnits="userSpaceOnUse" color-interpolation-filters="sRGB">
<feFlood flood-opacity="0" result="BackgroundImageFix"/>
<feBlend mode="normal" in="SourceGraphic" in2="BackgroundImageFix" result="shape"/>
<feGaussianBlur stdDeviation="211.4" result="effect1_foregroundBlur_46181_50607"/>
</filter>
<filter id="filter10_di_46181_50607" x="-518.5" y="778.26" width="2477" height="1271" filterUnits="userSpaceOnUse" color-interpolation-filters="sRGB">
<feFlood flood-opacity="0" result="BackgroundImageFix"/>
<feColorMatrix in="SourceAlpha" type="matrix" values="0 0 0 0 0 0 0 0 0 0 0 0 0 0 0 0 0 0 127 0" result="hardAlpha"/>
<feOffset dy="-26"/>
<feGaussianBlur stdDeviation="77"/>
<feComposite in2="hardAlpha" operator="out"/>
<feColorMatrix type="matrix" values="0 0 0 0 0.478431 0 0 0 0 0.372549 0 0 0 0 1 0 0 0 1 0"/>
<feBlend mode="normal" in2="BackgroundImageFix" result="effect1_dropShadow_46181_50607"/>
<feBlend mode="normal" in="SourceGraphic" in2="effect1_dropShadow_46181_50607" result="shape"/>
<feColorMatrix in="SourceAlpha" type="matrix" values="0 0 0 0 0 0 0 0 0 0 0 0 0 0 0 0 0 0 127 0" result="hardAlpha"/>
<feOffset dy="4"/>
<feGaussianBlur stdDeviation="70.3"/>
<feComposite in2="hardAlpha" operator="arithmetic" k2="-1" k3="1"/>
<feColorMatrix type="matrix" values="0 0 0 0 0.514351 0 0 0 0 0.498663 0 0 0 0 0.958857 0 0 0 0.67 0"/>
<feBlend mode="normal" in2="shape" result="effect2_innerShadow_46181_50607"/>
</filter>
<linearGradient id="paint0_linear_46181_50607" x1="400.498" y1="-56.3027" x2="400.498" y2="10.6973" gradientUnits="userSpaceOnUse">
<stop stop-color="white" stop-opacity="0"/>
<stop offset="0.377244" stop-color="white" stop-opacity="0.254543"/>
<stop offset="0.674507" stop-color="white" stop-opacity="0.511256"/>
<stop offset="0.925475" stop-color="white" stop-opacity="0.705164"/>
<stop offset="1" stop-color="white"/>
</linearGradient>
<linearGradient id="paint1_linear_46181_50607" x1="400.498" y1="81.6973" x2="400.498" y2="14.6973" gradientUnits="userSpaceOnUse">
<stop stop-color="white" stop-opacity="0"/>
<stop offset="0.377244" stop-color="white" stop-opacity="0.254543"/>
<stop offset="0.674507" stop-color="white" stop-opacity="0.511256"/>
<stop offset="0.925475" stop-color="white" stop-opacity="0.705164"/>
<stop offset="1" stop-color="white"/>
</linearGradient>
<linearGradient id="paint2_linear_46181_50607" x1="331" y1="14.1949" x2="398" y2="14.1949" gradientUnits="userSpaceOnUse">
<stop stop-color="white" stop-opacity="0"/>
<stop offset="0.377244" stop-color="white" stop-opacity="0.254543"/>
<stop offset="0.674507" stop-color="white" stop-opacity="0.511256"/>
<stop offset="0.925475" stop-color="white" stop-opacity="0.705164"/>
<stop offset="1" stop-color="white"/>
</linearGradient>
<linearGradient id="paint3_linear_46181_50607" x1="470" y1="14.1949" x2="403" y2="14.1949" gradientUnits="userSpaceOnUse">
<stop stop-color="white" stop-opacity="0"/>
<stop offset="0.377244" stop-color="white" stop-opacity="0.254543"/>
<stop offset="0.674507" stop-color="white" stop-opacity="0.511256"/>
<stop offset="0.925475" stop-color="white" stop-opacity="0.705164"/>
<stop offset="1" stop-color="white"/>
</linearGradient>
<linearGradient id="paint4_linear_46181_50607" x1="1279.5" y1="23.6973" x2="1279.5" y2="90.6973" gradientUnits="userSpaceOnUse">
<stop stop-color="white" stop-opacity="0"/>
<stop offset="0.377244" stop-color="white" stop-opacity="0.254543"/>
<stop offset="0.674507" stop-color="white" stop-opacity="0.511256"/>
<stop offset="0.925475" stop-color="white" stop-opacity="0.705164"/>
<stop offset="1" stop-color="white"/>
</linearGradient>
<linearGradient id="paint5_linear_46181_50607" x1="1279.5" y1="161.697" x2="1279.5" y2="94.6973" gradientUnits="userSpaceOnUse">
<stop stop-color="white" stop-opacity="0"/>
<stop offset="0.377244" stop-color="white" stop-opacity="0.254543"/>
<stop offset="0.674507" stop-color="white" stop-opacity="0.511256"/>
<stop offset="0.925475" stop-color="white" stop-opacity="0.705164"/>
<stop offset="1" stop-color="white"/>
</linearGradient>
<linearGradient id="paint6_linear_46181_50607" x1="1210" y1="94.1949" x2="1277" y2="94.1949" gradientUnits="userSpaceOnUse">
<stop stop-color="white" stop-opacity="0"/>
<stop offset="0.377244" stop-color="white" stop-opacity="0.254543"/>
<stop offset="0.674507" stop-color="white" stop-opacity="0.511256"/>
<stop offset="0.925475" stop-color="white" stop-opacity="0.705164"/>
<stop offset="1" stop-color="white"/>
</linearGradient>
<linearGradient id="paint7_linear_46181_50607" x1="1349" y1="94.1949" x2="1282" y2="94.1949" gradientUnits="userSpaceOnUse">
<stop stop-color="white" stop-opacity="0"/>
<stop offset="0.377244" stop-color="white" stop-opacity="0.254543"/>
<stop offset="0.674507" stop-color="white" stop-opacity="0.511256"/>
<stop offset="0.925475" stop-color="white" stop-opacity="0.705164"/>
<stop offset="1" stop-color="white"/>
</linearGradient>
<linearGradient id="paint8_linear_46181_50607" x1="159.498" y1="182.697" x2="159.498" y2="249.697" gradientUnits="userSpaceOnUse">
<stop stop-color="white" stop-opacity="0"/>
<stop offset="0.377244" stop-color="white" stop-opacity="0.254543"/>
<stop offset="0.674507" stop-color="white" stop-opacity="0.511256"/>
<stop offset="0.925475" stop-color="white" stop-opacity="0.705164"/>
<stop offset="1" stop-color="white"/>
</linearGradient>
<linearGradient id="paint9_linear_46181_50607" x1="159.498" y1="320.697" x2="159.498" y2="253.697" gradientUnits="userSpaceOnUse">
<stop stop-color="white" stop-opacity="0"/>
<stop offset="0.377244" stop-color="white" stop-opacity="0.254543"/>
<stop offset="0.674507" stop-color="white" stop-opacity="0.511256"/>
<stop offset="0.925475" stop-color="white" stop-opacity="0.705164"/>
<stop offset="1" stop-color="white"/>
</linearGradient>
<linearGradient id="paint10_linear_46181_50607" x1="90" y1="253.195" x2="157" y2="253.195" gradientUnits="userSpaceOnUse">
<stop stop-color="white" stop-opacity="0"/>
<stop offset="0.377244" stop-color="white" stop-opacity="0.254543"/>
<stop offset="0.674507" stop-color="white" stop-opacity="0.511256"/>
<stop offset="0.925475" stop-color="white" stop-opacity="0.705164"/>
<stop offset="1" stop-color="white"/>
</linearGradient>
<linearGradient id="paint11_linear_46181_50607" x1="229" y1="253.195" x2="162" y2="253.195" gradientUnits="userSpaceOnUse">
<stop stop-color="white" stop-opacity="0"/>
<stop offset="0.377244" stop-color="white" stop-opacity="0.254543"/>
<stop offset="0.674507" stop-color="white" stop-opacity="0.511256"/>
<stop offset="0.925475" stop-color="white" stop-opacity="0.705164"/>
<stop offset="1" stop-color="white"/>
</linearGradient>
<clipPath id="clip0_46181_50607">
<rect width="1440" height="1669" fill="white"/>
</clipPath>
</defs>
</svg>
